# xmcd
#
# Track frame offsets: 
#        150
#        1890
#        40455
#        60572
#        127549
#        130717
#        204133
#        215420
#        246030
#
# Disc length: 4057 seconds
#
# Revision: 0
# Processed by: cddbd v1.5PL3 Copyright (c) Steve Scherf et al.
# Submitted via: ExactAudioCopy v0.95a3
#
DISCID=6b0fd709
DTITLE=Randolph, Robert (& The Family Band) - Live - 20040221 - Lakewo
DTITLE=od, OH [CD2 of 2)
DYEAR=2004
DGENRE=Rock
TTITLE0=Billie Jean  [Michael Jackson] - Intro
TTITLE1=Billie Jean  [Michael Jackson]
TTITLE2=Peekaboo
TTITLE3=Nobody
TTITLE4=I Don't Know What You Come To Do - Intro
TTITLE5=I Don't Know What You Come To Do
TTITLE6='Crowd'
TTITLE7=Squeeze
TTITLE8=Pressing My Way
EXTD=Recorded live at Phantasy Theater - Lakewood, OH on February 21, 
EXTD=2004.\n\nAudience recording.
EXTT0=
EXTT1=
EXTT2=
EXTT3=
EXTT4=
EXTT5=
EXTT6=
EXTT7=
EXTT8=
PLAYORDER=
